<?xml version="1.0" encoding="UTF-8"?>
<svg xmlns="http://www.w3.org/2000/svg" viewBox="0 0 638.61 638.02">
  <defs>
    <style>
      .c, .d {
        fill: #fff;
      }

      .d {
        stroke: #27aae1;
        stroke-miterlimit: 10;
        stroke-width: 14px;
      }

      .e {
        fill: #00aeef;
      }
    </style>
  </defs>
  <g id="a" data-name="Layer 2">
    <path class="d" d="M57.65,87.66L322.25,19.5c2.27-.58,4.65-.57,6.92.04l252.05,68.01c5.92,1.6,10.04,6.97,10.03,13.1-.02,36.13,0,155.93,0,189.82,0,209.56-233.41,304.76-261.39,314.39-1.62.56-3.05,1.48-4.41,2.53-3.75,2.88-9.05,2.89-12.82-.02-1.15-.88-2.39-1.61-3.75-2.1-26.02-9.4-261.78-105.24-261.36-288.45.08-32.43-.23-175.98-.05-216.11.03-6.17,4.21-11.52,10.18-13.06Z"/>
    <path class="e" d="M82.17,108.89l239.8-61.77c2.06-.53,4.22-.52,6.27.04l228.44,61.64c5.37,1.45,9.1,6.31,9.09,11.87-.02,32.75,0,141.32,0,172.04,0,189.92-211.54,276.2-236.9,284.94-1.47.51-2.76,1.34-4,2.29-3.4,2.61-8.2,2.62-11.62-.02-1.04-.8-2.17-1.46-3.4-1.91-23.59-8.52-237.25-95.38-236.87-261.43.07-29.39-.21-159.49-.05-195.86.03-5.59,3.82-10.44,9.23-11.84Z"/>
    <path class="c" d="M217.13,297.05v-11.34c0-95.7,26.94-125.11,105.91-125.11s97.01,29.21,97.01,86.64l-39.52.91c0-26.31-8.21-39.35-56.88-39.35s-59.08,16.3-59.08,81.16v2.84c0,81.52,3.8,81.52,59.08,81.52,48.37,0,52.33-10.51,52.33-38.84l45.61,1.42c0,62.78-19.27,85.27-98.55,85.27-105.91,0-105.91-29.77-105.91-125.11Z"/>
  </g>
  <g id="b" data-name="Layer 1">
    <path class="c" d="M94.71,303.95v-20.37c0-171.86,56.01-224.69,220.24-224.69s217.05,41.37,215.78,185.23l-94.84,2.55c0-77.66-18.46-101.21-119.67-101.21s-122.85,29.28-122.85,145.76v5.09c0,119.03,25.46,146.4,122.85,146.4s120.3-24.83,120.3-101.84l94.84,2.55c1.27,141.94-51.56,185.23-216.42,185.23s-220.24-53.47-220.24-224.69Z"/>
  </g>
</svg>